<?xml version="1.0" encoding="utf-8"?>
<!-- Generator: Adobe Illustrator 22.0.0, SVG Export Plug-In . SVG Version: 6.00 Build 0)  -->
<svg version="1.1" id="Layer_1" xmlns="http://www.w3.org/2000/svg" xmlns:xlink="http://www.w3.org/1999/xlink" x="0px" y="0px"
	 viewBox="0 0 90 40" style="enable-background:new 0 0 90 40;" xml:space="preserve">
<style type="text/css">
	.st0{font-family:'Cinzel-Regular';}
	.st1{font-size:11.699px;}
</style>
<g>
	<text transform="matrix(1 0 0 1 27.4883 18.5336)" class="st0 st1">Liberty</text>
	<g>
		<text transform="matrix(1 0 0 1 27.4883 30.1937)" class="st0 st1">Therapies</text>
	</g>
</g>
<g>
	<g>
		<g>
			<g>
				<ellipse cx="13.4" cy="11.7" rx="1.4" ry="1.2"/>
			</g>
		</g>
		<g>
			<g>
				<path d="M13.4,13c-0.8,0-1.4-0.6-1.4-1.3s0.6-1.3,1.4-1.3s1.4,0.6,1.4,1.3S14.2,13,13.4,13z M13.4,10.5c-0.7,0-1.3,0.5-1.3,1.2
					c0,0.6,0.6,1.2,1.3,1.2c0.7,0,1.3-0.5,1.3-1.2C14.7,11.1,14.1,10.5,13.4,10.5z"/>
			</g>
		</g>
	</g>
	<g>
		<g>
			<g>
				<ellipse cx="13.4" cy="9.8" rx="0.8" ry="0.7"/>
			</g>
		</g>
		<g>
			<g>
				<path d="M13.4,10.6c-0.5,0-0.9-0.3-0.9-0.8S12.9,9,13.4,9s0.9,0.3,0.9,0.8S13.9,10.6,13.4,10.6z M13.4,9.1
					c-0.4,0-0.8,0.3-0.8,0.7c0,0.4,0.3,0.7,0.8,0.7s0.8-0.3,0.8-0.7C14.2,9.4,13.8,9.1,13.4,9.1z"/>
			</g>
		</g>
	</g>
	<g>
		<g>
			<g>
				<path d="M13.4,9.1c-0.4,0-0.6-0.3-0.6-0.6c0-0.3,0.3-0.6,0.6-0.6S14,8.2,14,8.5C14,8.8,13.7,9.1,13.4,9.1z M13.4,8.2
					c-0.2,0-0.4,0.1-0.4,0.3c0,0.2,0.2,0.3,0.4,0.3s0.4-0.1,0.4-0.3C13.8,8.3,13.6,8.2,13.4,8.2z"/>
			</g>
		</g>
		<g>
			<g>
				<path d="M13.4,9.1c-0.4,0-0.7-0.3-0.7-0.6s0.3-0.6,0.7-0.6s0.7,0.3,0.7,0.6S13.8,9.1,13.4,9.1z M13.4,8.2
					c-0.2,0-0.4,0.1-0.4,0.3s0.2,0.3,0.4,0.3s0.4-0.1,0.4-0.3S13.6,8.2,13.4,8.2z"/>
			</g>
		</g>
	</g>
	<g>
		<g>
			<g>
				<g>
					<path d="M1.4,33.5V22.6c0-5.4,4.8-9.8,10.8-9.8h2.3c5.3,0,9.7,3.4,10.6,8h-0.4c-0.9-4.2-4.9-7.4-9.7-7.6h0c0,0,0,0,0,0
						c-0.2,0-0.3,0-0.5,0h-2.3c-0.2,0-0.4,0-0.6,0c-5.4,0.3-9.8,4.4-9.8,9.4v10.9H1.4z"/>
				</g>
				<g>
					<path d="M14.8,13.1c-0.1,0-0.1,0-0.2,0h-2.3c-0.1,0-0.3,0-0.4,0c-5.6,0.2-10.2,4.4-10.2,9.5v10.9H2V22.6c0-4.8,4.1-8.8,9.4-9.2
						c0.3,0,0.6,0,0.9,0h2.3c0.3,0,0.5,0,0.8,0c4.6,0.3,8.4,3.4,9.3,7.4h0.3C24,16.5,19.8,13.2,14.8,13.1z M14.5,12.7h-2.3
						c-6.1,0-11,4.5-11,9.9v10.9h0.3V22.6c0-5.2,4.6-9.5,10.4-9.6c0.1,0,0.2,0,0.3,0h2.4c5.2,0,9.5,3.4,10.4,7.8h0.3
						C24.4,16.2,19.9,12.7,14.5,12.7z"/>
				</g>
			</g>
		</g>
	</g>
	<g>
		<g>
			<path d="M13.1,12.4L13,12.7L13,13l0,0.1c0,0,0,0,0,0c0,0,0,0.1,0,0.1c0,0,0,0.1,0,0.1c-0.3,1.3-1.5,6.2-1.5,12.3v7.8h-0.7v-7.8
				c0-5.6,1-10.3,1.4-12c-0.6,0.4-1.5,1.2-2.4,2.3c-1.4,1.8-3.1,4.9-3.1,9.7v7.9H5.9v-7.9c0-7.2,3.6-10.8,5.5-12.2
				c0.1-0.1,0.2-0.1,0.2-0.2c0.1-0.1,0.2-0.1,0.2-0.2c0,0,0.1-0.1,0.1-0.1c0.1-0.1,0.2-0.1,0.2-0.2c0.1-0.1,0.2-0.1,0.2-0.1l0,0
				L13.1,12.4z"/>
		</g>
	</g>
	<g>
		<path d="M20.6,20.8h-0.7c-0.6-2-1.6-3.6-2.4-4.6c-0.9-1.1-1.8-1.9-2.4-2.3c0.3,1.2,0.8,3.7,1.2,6.9h-0.7c-0.4-4.2-1.3-7.1-1.3-7.4
			c0,0,0,0,0,0l0-0.1l0-0.1l0-0.1L14,12.7l0,0l0,0l0.3,0.1l0.3,0.1l0,0c0,0,0.1,0,0.1,0.1c0.1,0,0.2,0.1,0.3,0.2c0,0,0,0,0,0h0
			c0.1,0,0.2,0.1,0.3,0.2C16.6,14.2,19.3,16.5,20.6,20.8z"/>
	</g>
	<g>
		<g>
			<g>
				<path d="M17.7,27.9c0,0-3.5-0.7-4.1-6.1c0,0,6.4-0.3,8.7,4c0,0,2.2,4.7-1.9,5.8c0,0,3.1-1.9,1.2-5.2s-6.6-3.1-6.6-3.1
					S14.5,25.1,17.7,27.9z"/>
			</g>
			<g>
				<g>
					<path d="M19.5,33.7c0.5,0,0.9-0.1,1.4-0.2c2.4-0.8,3.4-3.6,3.9-4.8c0.1-0.2,0.1-0.4,0.2-0.4c0.2-0.2,1-0.2,1.4-0.1l0.4,0.1
						l-0.1-0.4c-1-2.8-4.2-1.8-4.3-1.8l0.1,0.5c0.1,0,2.5-0.8,3.5,1.2c-0.5,0-1.2,0-1.5,0.4c-0.1,0.1-0.1,0.2-0.2,0.6
						c-0.4,1.1-1.4,3.8-3.6,4.5c-1.4,0.5-3.1,0.1-5-1.2l1,0.7C18.2,33.5,18.3,33.7,19.5,33.7z"/>
				</g>
			</g>
		</g>
		<g>
			<circle cx="24.8" cy="27" r="0.2"/>
		</g>
	</g>
</g>
</svg>
